<svg version="1.2" xmlns="http://www.w3.org/2000/svg" viewBox="0 0 5000 5001" width="5000" height="5001">
	<title>2</title>
	<defs>
		<clipPath clipPathUnits="userSpaceOnUse" id="cp1">
			<path d="m56.13 1703.23h1235.64v1235.63h-1235.64z"/>
		</clipPath>
		<clipPath clipPathUnits="userSpaceOnUse" id="cp2">
			<path d="m673.95 1703.23c-341.22 0-617.82 276.61-617.82 617.82 0 341.21 276.6 617.81 617.82 617.81 341.21 0 617.82-276.6 617.82-617.81 0-341.21-276.61-617.82-617.82-617.82z"/>
		</clipPath>
		<clipPath clipPathUnits="userSpaceOnUse" id="cp3">
			<path d="m620 2689.33h313.33v187.2h-313.33z"/>
		</clipPath>
		<clipPath clipPathUnits="userSpaceOnUse" id="cp4">
			<path d="m406.67 2689.33h314.66v187.2h-314.66z"/>
		</clipPath>
		<clipPath clipPathUnits="userSpaceOnUse" id="cp5">
			<path d="m282.34 1844.45h783.29v1008.88h-783.29z"/>
		</clipPath>
		<clipPath clipPathUnits="userSpaceOnUse" id="cp6">
			<path d="m301.33 1929.33h764.3v482.67h-764.3z"/>
		</clipPath>
		<clipPath clipPathUnits="userSpaceOnUse" id="cp7">
			<path d="m282.34 2220h253.66v556h-253.66z"/>
		</clipPath>
		<clipPath clipPathUnits="userSpaceOnUse" id="cp8">
			<path d="m818.67 2220h246.96v552h-246.96z"/>
		</clipPath>
	</defs>
	<style>
		.s0 { fill: #303036 } 
		.s1 { fill: #ffd21d } 
		.s2 { fill: none;stroke: #000000;stroke-miterlimit:10;stroke-width: 4.8 } 
		.s3 { fill: #587572 } 
		.s4 { fill: #ef6f6c } 
		.s5 { fill: #8db8a5;stroke: #000000;stroke-miterlimit:10;stroke-width: 4.8 } 
		.s6 { fill: #ffffff } 
		.s7 { fill: #ffd21d;stroke: #000000;stroke-miterlimit:10;stroke-width: 4.8 } 
		.s8 { fill: #8db8a5 } 
		.s9 { fill: #000000 } 
	</style>
	<g id="Clip-Path" clip-path="url(#cp1)">
		<g>
			<g id="Clip-Path" clip-path="url(#cp2)">
				<g>
					<path class="s0" d="m56.1 1703.2h1235.7v1235.7h-1235.7z"/>
				</g>
			</g>
		</g>
	</g>
	<path class="s1" d="m834.7 2758.1c0 0 48.3 25.1 22.7 57.7 0 0-11.8 21.3-54.9-6.1 0 0 20.8 48.7-20.9 55.8 0 0-28.8 10.9-35.9-32.2 0 0-11.4 33.2-38.4 23.2-15.5-5.7-18.8-19.4-18.8-30.1 0-6.3 1.2-12.6 3.5-18.6l12-31.8z"/>
	<g id="Clip-Path" clip-path="url(#cp3)">
		<g>
			<path class="s2" d="m834.7 2758.1c0 0 48.3 25.1 22.7 57.7 0 0-11.8 21.3-54.9-6.1 0 0 20.8 48.7-20.9 55.8 0 0-28.8 10.9-35.9-32.2 0 0-11.4 33.2-38.4 23.2-15.5-5.7-18.8-19.4-18.8-30.1 0-6.3 1.2-12.6 3.5-18.6l12-31.8z"/>
		</g>
	</g>
	<path class="s1" d="m505.9 2758.1c0 0-48.3 25.1-22.7 57.7 0 0 11.8 21.3 54.9-6.1 0 0-20.8 48.7 20.8 55.8 0 0 28.9 10.9 36-32.2 0 0 11.4 33.2 38.4 23.2 15.5-5.7 18.8-19.4 18.8-30.1 0-6.3-1.3-12.6-3.5-18.6l-12-31.8z"/>
	<g id="Clip-Path" clip-path="url(#cp4)">
		<g>
			<path class="s2" d="m505.9 2758.1c0 0-48.3 25.1-22.7 57.7 0 0 11.8 21.3 54.9-6.1 0 0-20.8 48.7 20.8 55.8 0 0 28.9 10.9 36-32.2 0 0 11.4 33.2 38.4 23.2 15.5-5.7 18.8-19.4 18.8-30.1 0-6.3-1.3-12.6-3.5-18.6l-12-31.8z"/>
		</g>
	</g>
	<path class="s3" d="m510.4 1936.2c0 0 143.6-53.7 340.9 0 0 0 57.7-73.3 112.5-86.5 0 0 83.1 253.8 91.2 439.5 8 185.8-43.3 298.9-43.3 298.9 0 0-60.8 197.2-332.1 196.7-271.3-0.6-326.1-167.9-326.1-167.9 0 0-69.8-90-51.4-334.6 0 0 28.3-265.4 100.4-432.6 0 0 36.9-5.2 107.9 86.5z"/>
	<g id="Clip-Path" clip-path="url(#cp5)">
		<g>
			<path class="s2" d="m510.4 1936.2c0 0 143.6-53.7 340.9 0 0 0 57.7-73.3 112.5-86.5 0 0 83.1 253.8 91.2 439.5 8 185.8-43.3 298.9-43.3 298.9 0 0-60.8 197.2-332.1 196.7-271.3-0.6-326.1-167.9-326.1-167.9 0 0-69.8-90-51.4-334.6 0 0 28.3-265.4 100.4-432.6 0 0 36.9-5.2 107.9 86.5z"/>
		</g>
	</g>
	<path class="s4" d="m830.8 1997.6c-60.1 0-113 30.7-143.9 77.3-30.9-46.6-83.8-77.3-144-77.3-95.3 0-172.6 77.2-172.6 172.6 0 95.3 77.3 172.5 172.6 172.5 60.2 0 113.1-30.7 144-77.3 30.9 46.6 83.8 77.3 143.9 77.3 95.4 0 172.6-77.2 172.6-172.5 0-95.4-77.2-172.6-172.6-172.6z"/>
	<g id="Clip-Path" clip-path="url(#cp6)">
		<g>
			<path class="s2" d="m830.8 1997.6c-60.1 0-113 30.7-143.9 77.3-30.9-46.6-83.8-77.3-144-77.3-95.3 0-172.6 77.2-172.6 172.6 0 95.3 77.3 172.5 172.6 172.5 60.2 0 113.1-30.7 144-77.3 30.9 46.6 83.8 77.3 143.9 77.3 95.4 0 172.6-77.2 172.6-172.5 0-95.4-77.2-172.6-172.6-172.6z"/>
		</g>
	</g>
	<path class="s5" d="m946.3 2174.4q0 2.7-0.1 5.3-0.1 2.7-0.4 5.3-0.3 2.7-0.6 5.3-0.4 2.6-1 5.2-0.5 2.6-1.1 5.2-0.7 2.6-1.4 5.1-0.8 2.6-1.7 5.1-0.9 2.5-1.9 5-1 2.4-2.2 4.8-1.1 2.4-2.4 4.8-1.2 2.3-2.6 4.6-1.4 2.3-2.8 4.5-1.5 2.2-3.1 4.3-1.6 2.2-3.3 4.2-1.7 2.1-3.4 4.1-1.8 1.9-3.7 3.8-1.9 1.9-3.9 3.7-1.9 1.8-4 3.4-2 1.7-4.2 3.3-2.1 1.6-4.3 3.1-2.2 1.5-4.5 2.8-2.3 1.4-4.6 2.6-2.4 1.3-4.8 2.4-2.4 1.2-4.9 2.2-2.4 1-4.9 1.9-2.5 0.9-5.1 1.7-2.5 0.7-5.1 1.4-2.6 0.6-5.2 1.2-2.6 0.5-5.2 0.9-2.6 0.4-5.3 0.6-2.6 0.3-5.3 0.4-2.6 0.1-5.3 0.1-2.7 0-5.3-0.1-2.7-0.1-5.3-0.4-2.7-0.2-5.3-0.6-2.6-0.4-5.2-0.9-2.7-0.6-5.2-1.2-2.6-0.7-5.2-1.4-2.5-0.8-5-1.7-2.5-0.9-5-1.9-2.4-1-4.8-2.2-2.4-1.1-4.8-2.4-2.3-1.2-4.6-2.6-2.3-1.3-4.5-2.8-2.2-1.5-4.3-3.1-2.2-1.6-4.2-3.3-2.1-1.6-4.1-3.4-1.9-1.8-3.8-3.7-1.9-1.9-3.7-3.8-1.8-2-3.5-4.1-1.6-2-3.2-4.2-1.6-2.1-3.1-4.3-1.5-2.2-2.8-4.5-1.4-2.3-2.6-4.6-1.3-2.4-2.4-4.8-1.2-2.4-2.2-4.8-1-2.5-1.9-5-0.9-2.5-1.7-5.1-0.7-2.5-1.4-5.1-0.6-2.6-1.2-5.2-0.5-2.6-0.9-5.2-0.4-2.6-0.6-5.3-0.3-2.6-0.4-5.3-0.1-2.6-0.1-5.3 0-2.7 0.1-5.3 0.1-2.7 0.4-5.3 0.2-2.7 0.6-5.3 0.4-2.6 0.9-5.2 0.6-2.6 1.2-5.2 0.7-2.6 1.4-5.1 0.8-2.6 1.7-5.1 0.9-2.5 1.9-5 1-2.4 2.2-4.8 1.1-2.4 2.4-4.8 1.2-2.3 2.6-4.6 1.3-2.3 2.8-4.5 1.5-2.2 3.1-4.3 1.6-2.2 3.2-4.2 1.7-2.1 3.5-4 1.8-2 3.7-3.9 1.9-1.9 3.8-3.7 2-1.8 4.1-3.4 2-1.7 4.2-3.3 2.1-1.6 4.3-3.1 2.2-1.4 4.5-2.8 2.3-1.4 4.6-2.6 2.4-1.3 4.8-2.4 2.4-1.2 4.8-2.2 2.5-1 5-1.9 2.5-0.9 5-1.7 2.6-0.7 5.2-1.4 2.5-0.6 5.2-1.1 2.6-0.6 5.2-1 2.6-0.3 5.3-0.6 2.6-0.3 5.3-0.4 2.6-0.1 5.3-0.1 2.7 0 5.3 0.1 2.7 0.1 5.3 0.4 2.7 0.3 5.3 0.6 2.6 0.4 5.2 1 2.6 0.5 5.2 1.1 2.6 0.7 5.1 1.4 2.6 0.8 5.1 1.7 2.5 0.9 4.9 1.9 2.5 1 4.9 2.2 2.4 1.1 4.8 2.4 2.3 1.2 4.6 2.6 2.3 1.4 4.5 2.8 2.2 1.5 4.3 3.1 2.2 1.6 4.2 3.3 2.1 1.6 4 3.4 2 1.8 3.9 3.7 1.9 1.9 3.7 3.9 1.7 1.9 3.4 4 1.7 2 3.3 4.2 1.6 2.1 3.1 4.3 1.4 2.2 2.8 4.5 1.4 2.3 2.6 4.6 1.3 2.4 2.4 4.8 1.2 2.4 2.2 4.8 1 2.5 1.9 5 0.9 2.5 1.7 5.1 0.7 2.5 1.4 5.1 0.6 2.6 1.1 5.2 0.6 2.6 1 5.2 0.3 2.6 0.6 5.3 0.3 2.6 0.4 5.3 0.1 2.6 0.1 5.3z"/>
	<path class="s6" d="m861 2134.1q0 2.3-0.2 4.6-0.2 2.3-0.7 4.5-0.4 2.3-1.1 4.5-0.7 2.2-1.5 4.3-0.9 2.1-2 4.1-1.1 2.1-2.4 4-1.2 1.9-2.7 3.7-1.4 1.7-3.1 3.4-1.6 1.6-3.4 3-1.7 1.5-3.6 2.8-2 1.2-4 2.3-2 1.1-4.1 2-2.1 0.9-4.3 1.5-2.2 0.7-4.5 1.1-2.2 0.5-4.5 0.7-2.3 0.2-4.6 0.2-2.3 0-4.6-0.2-2.3-0.2-4.5-0.7-2.3-0.4-4.5-1.1-2.2-0.6-4.3-1.5-2.1-0.9-4.1-2-2-1.1-3.9-2.3-2-1.3-3.7-2.8-1.8-1.4-3.4-3-1.6-1.7-3.1-3.4-1.5-1.8-2.7-3.7-1.3-1.9-2.4-4-1.1-2-1.9-4.1-0.9-2.1-1.6-4.3-0.7-2.2-1.1-4.5-0.5-2.2-0.7-4.5-0.2-2.3-0.2-4.6 0-2.3 0.2-4.6 0.2-2.2 0.7-4.5 0.4-2.2 1.1-4.4 0.7-2.2 1.6-4.3 0.8-2.2 1.9-4.2 1.1-2 2.4-3.9 1.2-1.9 2.7-3.7 1.5-1.8 3.1-3.4 1.6-1.6 3.4-3.1 1.7-1.4 3.7-2.7 1.9-1.3 3.9-2.4 2-1.1 4.1-1.9 2.1-0.9 4.3-1.6 2.2-0.6 4.5-1.1 2.2-0.4 4.5-0.7 2.3-0.2 4.6-0.2 2.3 0 4.6 0.2 2.3 0.3 4.5 0.7 2.3 0.5 4.5 1.1 2.2 0.7 4.3 1.6 2.1 0.8 4.1 1.9 2 1.1 4 2.4 1.9 1.3 3.6 2.7 1.8 1.5 3.4 3.1 1.7 1.6 3.1 3.4 1.5 1.8 2.7 3.7 1.3 1.9 2.4 3.9 1.1 2 2 4.2 0.8 2.1 1.5 4.3 0.7 2.2 1.1 4.4 0.5 2.3 0.7 4.5 0.2 2.3 0.2 4.6z"/>
	<path class="s6" d="m908.4 2228.4q0 1.3-0.1 2.6-0.2 1.2-0.4 2.5-0.3 1.2-0.6 2.4-0.4 1.3-0.9 2.4-0.5 1.2-1.1 2.3-0.6 1.2-1.3 2.2-0.7 1.1-1.5 2.1-0.8 1-1.7 1.9-0.9 0.9-1.9 1.7-1 0.8-2 1.5-1.1 0.7-2.2 1.3-1.2 0.6-2.3 1.1-1.2 0.5-2.4 0.8-1.2 0.4-2.5 0.6-1.2 0.3-2.5 0.4-1.3 0.1-2.5 0.1-1.3 0-2.6-0.1-1.3-0.1-2.5-0.4-1.3-0.2-2.5-0.6-1.2-0.3-2.4-0.8-1.1-0.5-2.3-1.1-1.1-0.6-2.1-1.3-1.1-0.7-2.1-1.5-1-0.8-1.9-1.7-0.9-0.9-1.7-1.9-0.8-1-1.5-2.1-0.7-1-1.3-2.2-0.6-1.1-1.1-2.3-0.5-1.1-0.9-2.4-0.3-1.2-0.6-2.4-0.2-1.3-0.3-2.5-0.2-1.3-0.2-2.6 0-1.2 0.2-2.5 0.1-1.3 0.3-2.5 0.3-1.3 0.6-2.5 0.4-1.2 0.9-2.4 0.5-1.2 1.1-2.3 0.6-1.1 1.3-2.2 0.7-1 1.5-2 0.8-1 1.7-1.9 0.9-0.9 1.9-1.7 1-0.8 2.1-1.5 1-0.7 2.1-1.3 1.2-0.6 2.3-1.1 1.2-0.5 2.4-0.9 1.2-0.3 2.5-0.6 1.2-0.2 2.5-0.4 1.3-0.1 2.6-0.1 1.2 0 2.5 0.1 1.3 0.2 2.5 0.4 1.3 0.3 2.5 0.6 1.2 0.4 2.4 0.9 1.1 0.5 2.3 1.1 1.1 0.6 2.2 1.3 1 0.7 2 1.5 1 0.8 1.9 1.7 0.9 0.9 1.7 1.9 0.8 1 1.5 2 0.7 1.1 1.3 2.2 0.6 1.1 1.1 2.3 0.5 1.2 0.9 2.4 0.3 1.2 0.6 2.5 0.2 1.2 0.4 2.5 0.1 1.3 0.1 2.5z"/>
	<path class="s5" d="m654 2174.4q0 2.7-0.2 5.3-0.1 2.7-0.4 5.3-0.2 2.7-0.6 5.3-0.4 2.6-0.9 5.2-0.5 2.6-1.2 5.2-0.6 2.6-1.4 5.1-0.8 2.6-1.7 5.1-0.9 2.5-1.9 5-1 2.4-2.1 4.8-1.2 2.4-2.4 4.8-1.3 2.3-2.7 4.6-1.3 2.3-2.8 4.5-1.5 2.2-3.1 4.3-1.5 2.2-3.2 4.2-1.7 2.1-3.5 4.1-1.8 1.9-3.7 3.8-1.8 1.9-3.8 3.7-2 1.8-4 3.4-2.1 1.7-4.2 3.3-2.2 1.6-4.4 3.1-2.2 1.5-4.5 2.8-2.3 1.4-4.6 2.6-2.3 1.3-4.8 2.4-2.4 1.2-4.8 2.2-2.5 1-5 1.9-2.5 0.9-5 1.7-2.6 0.7-5.1 1.4-2.6 0.6-5.2 1.2-2.6 0.5-5.3 0.9-2.6 0.4-5.3 0.6-2.6 0.3-5.3 0.4-2.6 0.1-5.3 0.1-2.6 0-5.3-0.1-2.6-0.1-5.3-0.4-2.6-0.2-5.3-0.6-2.6-0.4-5.2-0.9-2.6-0.6-5.2-1.2-2.6-0.7-5.1-1.4-2.6-0.8-5.1-1.7-2.5-0.9-4.9-1.9-2.5-1-4.9-2.2-2.4-1.1-4.7-2.4-2.4-1.2-4.7-2.6-2.2-1.3-4.5-2.8-2.2-1.5-4.3-3.1-2.1-1.6-4.2-3.3-2-1.6-4-3.4-2-1.8-3.9-3.7-1.9-1.9-3.6-3.8-1.8-2-3.5-4.1-1.7-2-3.3-4.2-1.6-2.1-3-4.3-1.5-2.2-2.9-4.5-1.4-2.3-2.6-4.6-1.3-2.4-2.4-4.8-1.1-2.4-2.2-4.8-1-2.5-1.9-5-0.9-2.5-1.6-5.1-0.8-2.5-1.5-5.1-0.6-2.6-1.1-5.2-0.5-2.6-0.9-5.2-0.4-2.6-0.7-5.3-0.2-2.6-0.4-5.3-0.1-2.6-0.1-5.3 0-2.7 0.1-5.3 0.2-2.7 0.4-5.3 0.3-2.7 0.7-5.3 0.4-2.6 0.9-5.2 0.5-2.6 1.1-5.2 0.7-2.6 1.5-5.1 0.7-2.6 1.6-5.1 0.9-2.5 1.9-5 1.1-2.4 2.2-4.8 1.1-2.4 2.4-4.8 1.2-2.3 2.6-4.6 1.4-2.3 2.9-4.5 1.4-2.2 3-4.3 1.6-2.2 3.3-4.2 1.7-2.1 3.5-4 1.7-2 3.6-3.9 1.9-1.9 3.9-3.7 2-1.8 4-3.4 2.1-1.7 4.2-3.3 2.1-1.6 4.3-3.1 2.3-1.4 4.5-2.8 2.3-1.4 4.7-2.6 2.3-1.3 4.7-2.4 2.4-1.2 4.9-2.2 2.4-1 4.9-1.9 2.5-0.9 5.1-1.7 2.5-0.7 5.1-1.4 2.6-0.6 5.2-1.1 2.6-0.6 5.2-1 2.7-0.3 5.3-0.6 2.7-0.3 5.3-0.4 2.7-0.1 5.3-0.1 2.7 0 5.3 0.1 2.7 0.1 5.3 0.4 2.7 0.3 5.3 0.6 2.7 0.4 5.3 1 2.6 0.5 5.2 1.1 2.5 0.7 5.1 1.4 2.5 0.8 5 1.7 2.5 0.9 5 1.9 2.4 1 4.8 2.2 2.5 1.1 4.8 2.4 2.3 1.2 4.6 2.6 2.3 1.4 4.5 2.8 2.2 1.5 4.4 3.1 2.1 1.6 4.2 3.3 2 1.6 4 3.4 2 1.8 3.8 3.7 1.9 1.9 3.7 3.9 1.8 1.9 3.5 4 1.7 2 3.2 4.2 1.6 2.1 3.1 4.3 1.5 2.2 2.8 4.5 1.4 2.3 2.7 4.6 1.2 2.4 2.4 4.8 1.1 2.4 2.1 4.8 1 2.5 1.9 5 0.9 2.5 1.7 5.1 0.8 2.5 1.4 5.1 0.7 2.6 1.2 5.2 0.5 2.6 0.9 5.2 0.4 2.6 0.6 5.3 0.3 2.6 0.4 5.3 0.2 2.6 0.2 5.3z"/>
	<path class="s6" d="m568.7 2134.1q0 2.3-0.3 4.6-0.2 2.3-0.6 4.5-0.5 2.3-1.2 4.5-0.6 2.2-1.5 4.3-0.9 2.1-2 4.1-1 2.1-2.3 4-1.3 1.9-2.7 3.7-1.5 1.7-3.1 3.4-1.6 1.6-3.4 3-1.8 1.5-3.7 2.8-1.9 1.2-3.9 2.3-2.1 1.1-4.2 2-2.1 0.9-4.3 1.5-2.2 0.7-4.4 1.1-2.3 0.5-4.6 0.7-2.3 0.2-4.6 0.2-2.3 0-4.5-0.2-2.3-0.2-4.6-0.7-2.2-0.4-4.4-1.1-2.2-0.6-4.3-1.5-2.2-0.9-4.2-2-2-1.1-3.9-2.3-1.9-1.3-3.7-2.8-1.8-1.4-3.4-3-1.6-1.7-3.1-3.4-1.4-1.8-2.7-3.7-1.3-1.9-2.4-4-1-2-1.9-4.1-0.9-2.1-1.6-4.3-0.6-2.2-1.1-4.5-0.4-2.2-0.6-4.5-0.3-2.3-0.3-4.6 0-2.3 0.3-4.6 0.2-2.2 0.6-4.5 0.5-2.2 1.1-4.4 0.7-2.2 1.6-4.3 0.9-2.2 1.9-4.2 1.1-2 2.4-3.9 1.3-1.9 2.7-3.7 1.5-1.8 3.1-3.4 1.6-1.6 3.4-3.1 1.8-1.4 3.7-2.7 1.9-1.3 3.9-2.4 2-1.1 4.2-1.9 2.1-0.9 4.3-1.6 2.2-0.6 4.4-1.1 2.3-0.4 4.6-0.7 2.2-0.2 4.5-0.2 2.3 0 4.6 0.2 2.3 0.3 4.6 0.7 2.2 0.5 4.4 1.1 2.2 0.7 4.3 1.6 2.1 0.8 4.2 1.9 2 1.1 3.9 2.4 1.9 1.3 3.7 2.7 1.8 1.5 3.4 3.1 1.6 1.6 3.1 3.4 1.4 1.8 2.7 3.7 1.3 1.9 2.3 3.9 1.1 2 2 4.2 0.9 2.1 1.5 4.3 0.7 2.2 1.2 4.4 0.4 2.3 0.6 4.5 0.3 2.3 0.3 4.6z"/>
	<path class="s6" d="m616 2228.4q0 1.3-0.1 2.6-0.1 1.2-0.4 2.5-0.2 1.2-0.6 2.4-0.4 1.3-0.9 2.4-0.4 1.2-1.1 2.3-0.6 1.2-1.3 2.2-0.7 1.1-1.5 2.1-0.8 1-1.7 1.9-0.9 0.9-1.9 1.7-1 0.8-2 1.5-1.1 0.7-2.2 1.3-1.1 0.6-2.3 1.1-1.2 0.5-2.4 0.8-1.2 0.4-2.5 0.6-1.2 0.3-2.5 0.4-1.2 0.1-2.5 0.1-1.3 0-2.6-0.1-1.2-0.1-2.5-0.4-1.2-0.2-2.4-0.6-1.3-0.3-2.4-0.8-1.2-0.5-2.3-1.1-1.2-0.6-2.2-1.3-1.1-0.7-2.1-1.5-0.9-0.8-1.8-1.7-0.9-0.9-1.7-1.9-0.9-1-1.6-2.1-0.7-1-1.3-2.2-0.6-1.1-1.1-2.3-0.4-1.1-0.8-2.4-0.4-1.2-0.6-2.4-0.3-1.3-0.4-2.5-0.1-1.3-0.1-2.6 0-1.2 0.1-2.5 0.1-1.3 0.4-2.5 0.2-1.3 0.6-2.5 0.4-1.2 0.8-2.4 0.5-1.2 1.1-2.3 0.6-1.1 1.3-2.2 0.7-1 1.6-2 0.8-1 1.7-1.9 0.9-0.9 1.8-1.7 1-0.8 2.1-1.5 1-0.7 2.2-1.3 1.1-0.6 2.3-1.1 1.1-0.5 2.4-0.9 1.2-0.3 2.4-0.6 1.3-0.2 2.5-0.4 1.3-0.1 2.6-0.1 1.3 0 2.5 0.1 1.3 0.2 2.5 0.4 1.3 0.3 2.5 0.6 1.2 0.4 2.4 0.9 1.2 0.5 2.3 1.1 1.1 0.6 2.2 1.3 1 0.7 2 1.5 1 0.8 1.9 1.7 0.9 0.9 1.7 1.9 0.8 1 1.5 2 0.7 1.1 1.3 2.2 0.7 1.1 1.1 2.3 0.5 1.2 0.9 2.4 0.4 1.2 0.6 2.5 0.3 1.2 0.4 2.5 0.1 1.3 0.1 2.5z"/>
	<path class="s7" d="m689.5 2391.1c0 0 41.7-22.5 61.5-67.3 19.8-44.8-27-72.5-27-72.5 0 0-40.8-24.1-85.5 10.8-11.2 8.8-19.2 21.3-21.6 35.3-1.8 10.7-0.8 23.7 7.3 37.7 20.5 35.2 65.3 56 65.3 56z"/>
	<path class="s8" d="m422.9 2707.5c6.5-11.2 11.5-23.3 14.8-35.8 22.6-85.7 28.6-219.6 28.6-219.6 7.1-90.8-111.3-146-146-160.2-5.9-2.4-12.2-3.6-18.6-3.6-16.9 240.1 51.8 328.6 51.8 328.6 0 0 15.2 46.5 69.4 90.6z"/>
	<g id="Clip-Path" clip-path="url(#cp7)">
		<g>
			<path class="s2" d="m422.9 2707.5c6.5-11.2 11.5-23.3 14.8-35.8 22.6-85.7 28.6-219.6 28.6-219.6 7.1-90.8-111.3-146-146-160.2-5.9-2.4-12.2-3.6-18.6-3.6-16.9 240.1 51.8 328.6 51.8 328.6 0 0 15.2 46.5 69.4 90.6z"/>
		</g>
	</g>
	<path class="s8" d="m1054.9 2288.3q0 0 0 0c-7.8 0-15.5 1.5-22.7 4.5-37.3 15.6-150.9 70.4-143.9 159.3 0 0 6.4 141.3 30.5 226.4 2.4 8.7 6 17 10.5 24.8 63.5-54.1 82.4-115.2 82.4-115.2 0 0 51.5-113.5 43.2-299.8z"/>
	<g id="Clip-Path" clip-path="url(#cp8)">
		<g>
			<path class="s2" d="m1054.9 2288.3q0 0 0 0c-7.8 0-15.5 1.5-22.7 4.5-37.3 15.6-150.9 70.4-143.9 159.3 0 0 6.4 141.3 30.5 226.4 2.4 8.7 6 17 10.5 24.8 63.5-54.1 82.4-115.2 82.4-115.2 0 0 51.5-113.5 43.2-299.8z"/>
		</g>
	</g>
	<g>
		<g>
			<g>
				<path class="s9" d="m1422.1 2578.5v-475.9h100.9v392.6h193v83.3z"/>
			</g>
		</g>
		<g>
			<g>
				<path class="s9" d="m1955.6 2585.1q-87.9 0-137.3-48.5-49.5-48.5-49.5-137.4 0-91.5 45.7-141.4 45.7-50 126.5-50 77.1 0 120.1 43.9 43 44 43 121.5v48.1h-234.7q1.6 42.3 25 66.1 23.5 23.8 65.8 23.8 32.9 0 62.1-6.9 29.4-6.8 61.3-21.8v76.8q-26.1 13.1-55.7 19.4-29.6 6.4-72.3 6.4zm-14-306.7q-31.5 0-49.5 20-17.9 20.1-20.5 56.8h139.4q-0.7-36.7-19.3-56.8-18.5-20-50.1-20z"/>
			</g>
		</g>
		<g>
			<g>
				<path class="s9" d="m2415.9 2578.5l-19.2-49.4h-2.6q-25.1 31.6-51.6 43.8-26.5 12.2-69.2 12.2-52.4 0-82.5-30-30.1-29.9-30.1-85.3 0-57.9 40.5-85.4 40.5-27.5 122.3-30.5l63.1-1.9v-16q0-55.3-56.6-55.3-43.7 0-102.6 26.4l-32.8-67.1q62.8-32.9 139.3-32.9 73.2 0 112.3 31.9 39 31.9 39 97v242.5zm-29.2-168.6l-38.5 1.3q-43.3 1.3-64.4 15.7-21.2 14.3-21.2 43.6 0 42 48.2 42 34.5 0 55.2-19.9 20.7-19.8 20.7-52.7z"/>
			</g>
		</g>
		<g>
			<g>
				<path class="s9" d="m2790.6 2207.8q20.2 0 33.5 2.9l-7.5 93.1q-12-3.3-29.3-3.3-47.5 0-74 24.5-26.6 24.4-26.6 68.3v185.2h-99.3v-363.9h75.2l14.7 61.2h4.9q16.9-30.6 45.7-49.3 28.8-18.7 62.7-18.7z"/>
			</g>
		</g>
		<g>
			<g>
				<path class="s9" d="m3226.1 2578.5h-99.3v-212.5q0-39.4-14-59.1-14-19.7-44.6-19.7-41.6 0-60.2 27.8-18.5 27.9-18.5 92.3v171.2h-99.3v-363.9h75.8l13.4 46.6h5.5q16.6-26.4 45.7-39.9 29.2-13.5 66.3-13.5 63.5 0 96.3 34.3 32.9 34.4 32.9 99.1z"/>
			</g>
		</g>
		<g>
			<g>
				<path class="s9" d="m3538.3 2179.8q-57 0-88.2 42.8-31.3 42.8-31.3 119.3 0 159.2 119.5 159.2 50.1 0 121.4-25.1v84.7q-58.6 24.4-130.9 24.4-103.8 0-158.8-63-55-63-55-180.9 0-74.2 27-130 27-55.8 77.6-85.6 50.7-29.8 118.7-29.8 69.3 0 139.3 33.5l-32.5 82.1q-26.7-12.7-53.8-22.2-27-9.4-53-9.4z"/>
			</g>
		</g>
		<g>
			<g>
				<path class="s9" d="m4083.9 2395.9q0 88.9-46.9 139-46.9 50.2-130.6 50.2-52.4 0-92.4-23-40-22.9-61.5-65.9-21.5-43-21.5-100.3 0-89.2 46.5-138.6 46.6-49.5 130.9-49.5 52.4 0 92.5 22.8 40 22.8 61.5 65.4 21.5 42.6 21.5 99.9zm-251.7 0q0 54.1 17.8 81.7 17.7 27.7 57.8 27.7 39.7 0 57.1-27.5 17.4-27.5 17.4-81.9 0-54-17.6-81-17.6-27-57.6-27-39.7 0-57.3 26.8-17.6 26.9-17.6 81.2z"/>
			</g>
		</g>
		<g>
			<g>
				<path class="s9" d="m4281.1 2585.1q-64.1 0-100.7-49.8-36.6-49.9-36.6-138.1 0-89.5 37.2-139.4 37.3-50 102.7-50 68.7 0 104.9 53.4h3.2q-7.5-40.7-7.5-72.6v-116.6h99.6v506.5h-76.2l-19.1-47.2h-4.3q-33.9 53.8-103.2 53.8zm34.8-79.1q38.1 0 55.9-22.2 17.7-22.1 19.4-75.2v-10.7q0-58.6-18.1-84-18.1-25.4-58.8-25.4-33.2 0-51.6 28.2-18.4 28.1-18.4 81.8 0 53.7 18.6 80.6 18.5 26.9 53 26.9z"/>
			</g>
		</g>
		<g>
			<g>
				<path class="s9" d="m4752.5 2585.1q-87.9 0-137.4-48.5-49.5-48.5-49.5-137.4 0-91.5 45.8-141.4 45.7-50 126.4-50 77.2 0 120.1 43.9 43 44 43 121.5v48.1h-234.7q1.6 42.3 25.1 66.1 23.4 23.8 65.7 23.8 32.9 0 62.2-6.9 29.3-6.8 61.2-21.8v76.8q-26 13.1-55.7 19.4-29.6 6.4-72.2 6.4zm-14-306.7q-31.6 0-49.5 20-17.9 20.1-20.5 56.8h139.3q-0.7-36.7-19.2-56.8-18.6-20-50.1-20z"/>
			</g>
		</g>
	</g>
</svg>