<svg version="1.2" xmlns="http://www.w3.org/2000/svg" viewBox="0 0 5000 5001" width="5000" height="5001">
	<title>3</title>
	<defs>
		<clipPath clipPathUnits="userSpaceOnUse" id="cp1">
			<path d="m1229.12 1057.36h2714.86v2714.87h-2714.86z"/>
		</clipPath>
		<clipPath clipPathUnits="userSpaceOnUse" id="cp2">
			<path d="m2586.55 1057.36c-749.69 0-1357.43 607.75-1357.43 1357.44 0 749.68 607.74 1357.43 1357.43 1357.43 749.69 0 1357.43-607.75 1357.43-1357.43 0-749.69-607.74-1357.44-1357.43-1357.44z"/>
		</clipPath>
		<clipPath clipPathUnits="userSpaceOnUse" id="cp3">
			<path d="m2468 3224h688v410.64h-688z"/>
		</clipPath>
		<clipPath clipPathUnits="userSpaceOnUse" id="cp4">
			<path d="m2000 3224h689.33v410.64h-689.33z"/>
		</clipPath>
		<clipPath clipPathUnits="userSpaceOnUse" id="cp5">
			<path d="m1726.13 1367.64h1721v2216.36h-1721z"/>
		</clipPath>
		<clipPath clipPathUnits="userSpaceOnUse" id="cp6">
			<path d="m1769.33 1553.33h1677.8v1060h-1677.8z"/>
		</clipPath>
		<clipPath clipPathUnits="userSpaceOnUse" id="cp7">
			<path d="m1726.13 2192h555.2v1222.67h-555.2z"/>
		</clipPath>
		<clipPath clipPathUnits="userSpaceOnUse" id="cp8">
			<path d="m2906.67 2192h540.46v1213.33h-540.46z"/>
		</clipPath>
	</defs>
	<style>
		.s0 { fill: #303036 } 
		.s1 { fill: #ffd21d } 
		.s2 { fill: none;stroke: #000000;stroke-miterlimit:10;stroke-width: 10.6 } 
		.s3 { fill: #587572 } 
		.s4 { fill: #ef6f6c } 
		.s5 { fill: #8db8a5;stroke: #000000;stroke-miterlimit:10;stroke-width: 10.6 } 
		.s6 { fill: #ffffff } 
		.s7 { fill: #ffd21d;stroke: #000000;stroke-miterlimit:10;stroke-width: 10.6 } 
		.s8 { fill: #8db8a5 } 
	</style>
	<g id="Clip-Path" clip-path="url(#cp1)">
		<g>
			<g id="Clip-Path" clip-path="url(#cp2)">
				<g>
					<path class="s0" d="m1229.1 1057.4h2714.9v2714.8h-2714.9z"/>
				</g>
			</g>
		</g>
	</g>
	<path class="s1" d="m2939.7 3375c0 0 106.1 55.1 49.9 126.9 0 0-26 46.8-120.7-13.5 0 0 45.8 107.1-45.7 122.7 0 0-63.5 23.9-79.1-70.7 0 0-24.9 72.8-84.2 51-34.1-12.6-41.4-42.8-41.4-66.2 0-13.9 2.8-27.8 7.7-40.8l26.4-69.9z"/>
	<g id="Clip-Path" clip-path="url(#cp3)">
		<g>
			<path class="s2" d="m2939.7 3375c0 0 106.1 55.1 49.9 126.9 0 0-26 46.8-120.7-13.5 0 0 45.8 107.1-45.7 122.7 0 0-63.5 23.9-79.1-70.7 0 0-24.9 72.8-84.2 51-34.1-12.6-41.4-42.8-41.4-66.2 0-13.9 2.8-27.8 7.7-40.8l26.4-69.9z"/>
		</g>
	</g>
	<path class="s1" d="m2217.3 3375c0 0-106.1 55.1-49.9 126.9 0 0 26 46.8 120.7-13.5 0 0-45.8 107.1 45.7 122.7 0 0 63.5 23.9 79.1-70.7 0 0 25 72.8 84.3 51 34-12.6 41.3-42.8 41.3-66.2 0-13.9-2.8-27.8-7.7-40.8l-26.4-69.9z"/>
	<g id="Clip-Path" clip-path="url(#cp4)">
		<g>
			<path class="s2" d="m2217.3 3375c0 0-106.1 55.1-49.9 126.9 0 0 26 46.8 120.7-13.5 0 0-45.8 107.1 45.7 122.7 0 0 63.5 23.9 79.1-70.7 0 0 25 72.8 84.3 51 34-12.6 41.3-42.8 41.3-66.2 0-13.9-2.7-27.8-7.7-40.8l-26.4-69.9z"/>
		</g>
	</g>
	<path class="s3" d="m2227.2 1569.2c0 0 315.6-117.9 749.1 0 0 0 126.7-161 247.1-190.1 0 0 182.6 557.7 200.3 965.8 17.7 408.1-95.1 656.6-95.1 656.6 0 0-133.6 433.4-729.7 432.2-596-1.3-716.5-368.9-716.5-368.9 0 0-153.3-197.7-112.8-735.1 0 0 62.1-583 220.6-950.6 0 0 81.1-11.4 237 190.1z"/>
	<g id="Clip-Path" clip-path="url(#cp5)">
		<g>
			<path class="s2" d="m2227.2 1569.2c0 0 315.6-117.9 749.1 0 0 0 126.7-161 247.1-190.1 0 0 182.6 557.7 200.3 965.8 17.7 408.1-95.1 656.6-95.1 656.6 0 0-133.6 433.4-729.7 432.2-596-1.3-716.5-368.9-716.5-368.9 0 0-153.3-197.7-112.8-735.1 0 0 62.1-583 220.6-950.6 0 0 81.1-11.4 237 190.1z"/>
		</g>
	</g>
	<path class="s4" d="m2931.3 1704.1c-132.1 0-248.4 67.5-316.3 170-67.9-102.5-184.2-170-316.3-170-209.4 0-379.2 169.7-379.2 379.2 0 209.4 169.8 379.2 379.2 379.2 132.1 0 248.4-67.6 316.3-170.1 67.9 102.5 184.2 170.1 316.3 170.1 209.4 0 379.2-169.8 379.2-379.2 0-209.5-169.8-379.2-379.2-379.2z"/>
	<g id="Clip-Path" clip-path="url(#cp6)">
		<g>
			<path class="s2" d="m2931.3 1704.1c-132.1 0-248.4 67.5-316.3 170-67.9-102.5-184.2-170-316.3-170-209.4 0-379.2 169.7-379.2 379.2 0 209.4 169.8 379.2 379.2 379.2 132.1 0 248.4-67.6 316.3-170.1 67.9 102.5 184.2 170.1 316.3 170.1 209.4 0 379.2-169.8 379.2-379.2 0-209.5-169.8-379.2-379.2-379.2z"/>
		</g>
	</g>
	<path class="s5" d="m3185 2092.6q0 5.8-0.3 11.7-0.3 5.8-0.8 11.6-0.6 5.8-1.5 11.6-0.8 5.8-2 11.5-1.1 5.8-2.5 11.4-1.4 5.7-3.1 11.3-1.7 5.6-3.7 11.1-2 5.5-4.2 10.9-2.2 5.4-4.7 10.7-2.5 5.3-5.3 10.4-2.8 5.2-5.8 10.2-3 5-6.2 9.8-3.3 4.9-6.7 9.6-3.5 4.7-7.2 9.2-3.7 4.5-7.7 8.8-3.9 4.4-8 8.5-4.1 4.1-8.5 8.1-4.3 3.9-8.8 7.6-4.5 3.7-9.2 7.2-4.7 3.5-9.6 6.7-4.8 3.3-9.8 6.3-5.1 3-10.2 5.7-5.2 2.8-10.4 5.3-5.3 2.5-10.7 4.7-5.4 2.2-10.9 4.2-5.5 2-11.1 3.7-5.6 1.7-11.3 3.1-5.6 1.4-11.4 2.5-5.7 1.2-11.5 2-5.8 0.9-11.6 1.5-5.8 0.6-11.6 0.8-5.9 0.3-11.7 0.3-5.9 0-11.7-0.3-5.8-0.2-11.6-0.8-5.9-0.6-11.6-1.5-5.8-0.8-11.5-2-5.8-1.1-11.4-2.5-5.7-1.4-11.3-3.1-5.6-1.7-11.1-3.7-5.5-2-10.9-4.2-5.4-2.2-10.7-4.7-5.3-2.5-10.4-5.3-5.2-2.7-10.2-5.7-5-3-9.8-6.3-4.9-3.2-9.6-6.7-4.7-3.5-9.2-7.2-4.5-3.7-8.9-7.6-4.3-4-8.4-8.1-4.2-4.1-8.1-8.5-3.9-4.3-7.6-8.8-3.7-4.5-7.2-9.2-3.5-4.7-6.7-9.6-3.3-4.8-6.3-9.8-3-5-5.7-10.2-2.8-5.1-5.3-10.4-2.5-5.3-4.7-10.7-2.3-5.4-4.2-10.9-2-5.5-3.7-11.1-1.7-5.6-3.1-11.3-1.4-5.6-2.6-11.4-1.1-5.7-2-11.5-0.8-5.8-1.4-11.6-0.6-5.8-0.8-11.6-0.3-5.9-0.3-11.7 0-5.8 0.3-11.7 0.2-5.8 0.8-11.6 0.6-5.8 1.4-11.6 0.9-5.8 2-11.5 1.2-5.8 2.6-11.4 1.4-5.7 3.1-11.3 1.7-5.6 3.7-11.1 1.9-5.5 4.2-10.9 2.2-5.4 4.7-10.7 2.5-5.2 5.3-10.4 2.7-5.2 5.7-10.2 3-5 6.3-9.8 3.2-4.9 6.7-9.6 3.5-4.7 7.2-9.2 3.7-4.5 7.6-8.8 3.9-4.4 8.1-8.5 4.1-4.1 8.4-8.1 4.4-3.9 8.9-7.6 4.5-3.7 9.2-7.2 4.7-3.5 9.6-6.7 4.8-3.2 9.8-6.3 5-3 10.2-5.7 5.1-2.8 10.4-5.3 5.3-2.5 10.7-4.7 5.4-2.2 10.9-4.2 5.5-2 11.1-3.7 5.6-1.7 11.3-3.1 5.6-1.4 11.4-2.5 5.7-1.2 11.5-2 5.7-0.9 11.6-1.5 5.8-0.5 11.6-0.8 5.8-0.3 11.7-0.3 5.8 0 11.7 0.3 5.8 0.3 11.6 0.8 5.8 0.6 11.6 1.5 5.8 0.8 11.5 2 5.8 1.1 11.4 2.5 5.7 1.4 11.3 3.1 5.6 1.7 11.1 3.7 5.5 2 10.9 4.2 5.4 2.2 10.7 4.7 5.2 2.5 10.4 5.3 5.1 2.7 10.2 5.7 5 3.1 9.8 6.3 4.9 3.2 9.6 6.7 4.7 3.5 9.2 7.2 4.5 3.7 8.8 7.6 4.4 4 8.5 8.1 4.1 4.1 8 8.5 4 4.3 7.7 8.8 3.7 4.5 7.2 9.2 3.4 4.7 6.7 9.6 3.2 4.8 6.2 9.8 3 5 5.8 10.2 2.8 5.2 5.3 10.4 2.5 5.3 4.7 10.7 2.2 5.4 4.2 10.9 2 5.5 3.7 11.1 1.7 5.6 3.1 11.3 1.4 5.6 2.5 11.4 1.2 5.7 2 11.5 0.9 5.8 1.5 11.6 0.5 5.8 0.8 11.6 0.3 5.9 0.3 11.7z"/>
	<path class="s6" d="m2997.6 2004.1q0 2.5-0.1 5-0.2 2.6-0.4 5.1-0.3 2.5-0.6 5-0.4 2.5-0.9 4.9-0.5 2.5-1.1 4.9-0.6 2.5-1.3 4.9-0.8 2.4-1.6 4.8-0.9 2.4-1.8 4.7-1 2.3-2.1 4.6-1.1 2.3-2.2 4.5-1.2 2.2-2.5 4.4-1.3 2.1-2.7 4.2-1.4 2.1-2.9 4.2-1.5 2-3.1 3.9-1.6 2-3.3 3.8-1.7 1.9-3.5 3.7-1.8 1.8-3.6 3.5-1.9 1.6-3.8 3.2-2 1.6-4 3.1-2 1.5-4.1 2.9-2.1 1.4-4.3 2.7-2.2 1.3-4.4 2.5-2.2 1.2-4.5 2.3-2.3 1.1-4.6 2-2.3 1-4.7 1.8-2.4 0.9-4.8 1.6-2.4 0.8-4.8 1.4-2.5 0.6-4.9 1.1-2.5 0.5-5 0.8-2.5 0.4-5 0.7-2.5 0.2-5 0.3-2.5 0.1-5.1 0.1-2.5 0-5-0.1-2.5-0.1-5-0.3-2.5-0.3-5-0.7-2.5-0.3-5-0.8-2.4-0.5-4.9-1.1-2.4-0.6-4.8-1.4-2.5-0.7-4.8-1.6-2.4-0.8-4.7-1.8-2.4-0.9-4.6-2-2.3-1.1-4.5-2.3-2.3-1.2-4.4-2.5-2.2-1.3-4.3-2.7-2.1-1.4-4.1-2.9-2-1.5-4-3.1-1.9-1.6-3.8-3.2-1.8-1.7-3.6-3.5-1.8-1.8-3.5-3.7-1.7-1.8-3.3-3.8-1.6-1.9-3.1-3.9-1.5-2.1-2.9-4.2-1.4-2.1-2.7-4.2-1.3-2.2-2.5-4.4-1.2-2.2-2.2-4.5-1.1-2.3-2.1-4.6-0.9-2.3-1.8-4.7-0.8-2.4-1.6-4.8-0.7-2.4-1.3-4.9-0.6-2.4-1.1-4.9-0.5-2.4-0.9-4.9-0.3-2.5-0.6-5-0.2-2.5-0.4-5.1-0.1-2.5-0.1-5 0-2.5 0.1-5 0.2-2.5 0.4-5 0.3-2.6 0.6-5 0.4-2.5 0.9-5 0.5-2.5 1.1-4.9 0.6-2.5 1.3-4.9 0.8-2.4 1.6-4.8 0.9-2.3 1.8-4.7 1-2.3 2.1-4.6 1-2.2 2.2-4.5 1.2-2.2 2.5-4.4 1.3-2.1 2.7-4.2 1.4-2.1 2.9-4.1 1.5-2.1 3.1-4 1.6-1.9 3.3-3.8 1.7-1.9 3.5-3.7 1.8-1.7 3.6-3.4 1.9-1.7 3.8-3.3 2-1.6 4-3.1 2-1.5 4.1-2.9 2.1-1.4 4.3-2.7 2.1-1.3 4.4-2.5 2.2-1.2 4.5-2.3 2.2-1 4.6-2 2.3-1 4.7-1.8 2.3-0.9 4.8-1.6 2.4-0.7 4.8-1.3 2.5-0.7 4.9-1.2 2.5-0.4 5-0.8 2.5-0.4 5-0.6 2.5-0.3 5-0.4 2.5-0.1 5-0.1 2.6 0 5.1 0.1 2.5 0.1 5 0.4 2.5 0.2 5 0.6 2.5 0.4 5 0.8 2.4 0.5 4.9 1.2 2.4 0.6 4.8 1.3 2.4 0.7 4.8 1.6 2.4 0.8 4.7 1.8 2.3 1 4.6 2 2.3 1.1 4.5 2.3 2.2 1.2 4.4 2.5 2.2 1.3 4.3 2.7 2.1 1.4 4.1 2.9 2 1.5 4 3.1 1.9 1.6 3.8 3.3 1.8 1.7 3.6 3.4 1.8 1.8 3.5 3.7 1.7 1.9 3.3 3.8 1.6 1.9 3.1 4 1.5 2 2.9 4.1 1.4 2.1 2.7 4.2 1.3 2.2 2.5 4.4 1.1 2.3 2.2 4.5 1.1 2.3 2.1 4.6 0.9 2.4 1.8 4.7 0.8 2.4 1.6 4.8 0.7 2.4 1.3 4.9 0.6 2.4 1.1 4.9 0.5 2.5 0.9 5 0.3 2.4 0.6 5 0.2 2.5 0.4 5 0.1 2.5 0.1 5z"/>
	<path class="s6" d="m3101.6 2211.3q0 2.8-0.3 5.6-0.2 2.8-0.8 5.5-0.5 2.7-1.3 5.4-0.8 2.7-1.9 5.3-1.1 2.6-2.4 5-1.3 2.5-2.9 4.8-1.5 2.4-3.3 4.5-1.8 2.2-3.8 4.2-1.9 1.9-4.1 3.7-2.2 1.8-4.5 3.4-2.3 1.5-4.8 2.8-2.5 1.3-5 2.4-2.6 1.1-5.3 1.9-2.7 0.8-5.4 1.4-2.8 0.5-5.5 0.8-2.8 0.2-5.6 0.2-2.8 0-5.6-0.2-2.8-0.3-5.5-0.8-2.8-0.6-5.5-1.4-2.6-0.8-5.2-1.9-2.6-1.1-5.1-2.4-2.4-1.3-4.8-2.8-2.3-1.6-4.5-3.4-2.1-1.8-4.1-3.7-2-2-3.8-4.2-1.7-2.1-3.3-4.5-1.5-2.3-2.9-4.8-1.3-2.4-2.3-5-1.1-2.6-1.9-5.3-0.8-2.7-1.4-5.4-0.5-2.7-0.8-5.5-0.3-2.8-0.3-5.6 0-2.8 0.3-5.6 0.3-2.8 0.8-5.5 0.6-2.8 1.4-5.4 0.8-2.7 1.9-5.3 1-2.6 2.3-5.1 1.4-2.4 2.9-4.7 1.6-2.4 3.3-4.5 1.8-2.2 3.8-4.2 2-2 4.1-3.7 2.2-1.8 4.5-3.4 2.4-1.5 4.8-2.8 2.5-1.4 5.1-2.4 2.6-1.1 5.2-1.9 2.7-0.8 5.5-1.4 2.7-0.5 5.5-0.8 2.8-0.3 5.6-0.3 2.8 0 5.6 0.3 2.7 0.3 5.5 0.8 2.7 0.6 5.4 1.4 2.7 0.8 5.3 1.9 2.5 1 5 2.4 2.5 1.3 4.8 2.8 2.3 1.6 4.5 3.4 2.2 1.7 4.1 3.7 2 2 3.8 4.2 1.8 2.1 3.3 4.5 1.6 2.3 2.9 4.7 1.3 2.5 2.4 5.1 1.1 2.6 1.9 5.3 0.8 2.6 1.3 5.4 0.6 2.7 0.8 5.5 0.3 2.8 0.3 5.6z"/>
	<path class="s5" d="m2542.6 2092.6q0 5.8-0.2 11.7-0.3 5.8-0.9 11.6-0.6 5.8-1.4 11.6-0.9 5.8-2 11.5-1.2 5.8-2.6 11.4-1.4 5.7-3.1 11.3-1.7 5.6-3.7 11.1-1.9 5.5-4.2 10.9-2.2 5.4-4.7 10.7-2.5 5.3-5.3 10.4-2.7 5.2-5.7 10.2-3 5-6.3 9.8-3.2 4.9-6.7 9.6-3.5 4.7-7.2 9.2-3.7 4.5-7.6 8.8-3.9 4.4-8.1 8.5-4.1 4.1-8.4 8.1-4.4 3.9-8.9 7.6-4.5 3.7-9.2 7.2-4.7 3.5-9.5 6.7-4.9 3.3-9.9 6.3-5 3-10.2 5.7-5.1 2.8-10.4 5.3-5.3 2.5-10.7 4.7-5.4 2.2-10.9 4.2-5.5 2-11.1 3.7-5.6 1.7-11.2 3.1-5.7 1.4-11.4 2.5-5.8 1.2-11.6 2-5.7 0.9-11.5 1.5-5.9 0.6-11.7 0.8-5.8 0.3-11.7 0.3-5.8 0-11.7-0.3-5.8-0.2-11.6-0.8-5.8-0.6-11.6-1.5-5.8-0.8-11.5-2-5.7-1.1-11.4-2.5-5.7-1.4-11.3-3.1-5.6-1.7-11.1-3.7-5.5-2-10.9-4.2-5.4-2.2-10.6-4.7-5.3-2.5-10.5-5.3-5.1-2.7-10.1-5.7-5.1-3-9.9-6.3-4.9-3.2-9.6-6.7-4.7-3.5-9.2-7.2-4.5-3.7-8.8-7.6-4.4-4-8.5-8.1-4.1-4.1-8-8.5-4-4.3-7.7-8.8-3.7-4.5-7.2-9.2-3.4-4.7-6.7-9.6-3.2-4.8-6.2-9.8-3-5-5.8-10.2-2.7-5.1-5.2-10.4-2.5-5.3-4.8-10.7-2.2-5.4-4.2-10.9-2-5.5-3.7-11.1-1.6-5.6-3.1-11.3-1.4-5.6-2.5-11.4-1.2-5.7-2-11.5-0.9-5.8-1.5-11.6-0.5-5.8-0.8-11.6-0.3-5.9-0.3-11.7 0-5.8 0.3-11.7 0.3-5.8 0.8-11.6 0.6-5.8 1.5-11.6 0.8-5.8 2-11.5 1.1-5.8 2.5-11.4 1.5-5.7 3.1-11.3 1.7-5.6 3.7-11.1 2-5.5 4.2-10.9 2.3-5.4 4.8-10.7 2.5-5.2 5.2-10.4 2.8-5.2 5.8-10.2 3-5 6.2-9.8 3.3-4.9 6.7-9.6 3.5-4.7 7.2-9.2 3.7-4.5 7.7-8.8 3.9-4.4 8-8.5 4.1-4.1 8.5-8.1 4.3-3.9 8.8-7.6 4.5-3.7 9.2-7.2 4.7-3.5 9.6-6.7 4.8-3.2 9.9-6.3 5-3 10.1-5.7 5.2-2.8 10.5-5.3 5.2-2.5 10.6-4.7 5.4-2.2 10.9-4.2 5.5-2 11.1-3.7 5.6-1.7 11.3-3.1 5.7-1.4 11.4-2.5 5.7-1.2 11.5-2 5.8-0.9 11.6-1.5 5.8-0.5 11.6-0.8 5.9-0.3 11.7-0.3 5.9 0 11.7 0.3 5.8 0.3 11.7 0.8 5.8 0.6 11.5 1.5 5.8 0.8 11.6 2 5.7 1.1 11.4 2.5 5.6 1.4 11.2 3.1 5.6 1.7 11.1 3.7 5.5 2 10.9 4.2 5.4 2.2 10.7 4.7 5.3 2.5 10.4 5.3 5.2 2.7 10.2 5.7 5 3.1 9.9 6.3 4.8 3.2 9.5 6.7 4.7 3.5 9.2 7.2 4.5 3.7 8.9 7.6 4.3 4 8.4 8.1 4.2 4.1 8.1 8.5 3.9 4.3 7.6 8.8 3.7 4.5 7.2 9.2 3.5 4.7 6.7 9.6 3.3 4.8 6.3 9.8 3 5 5.7 10.2 2.8 5.2 5.3 10.4 2.5 5.3 4.7 10.7 2.3 5.4 4.2 10.9 2 5.5 3.7 11.1 1.7 5.6 3.1 11.3 1.4 5.6 2.6 11.4 1.1 5.7 2 11.5 0.8 5.8 1.4 11.6 0.6 5.8 0.9 11.6 0.2 5.9 0.2 11.7z"/>
	<path class="s6" d="m2355.2 2004.1q0 2.5-0.1 5-0.1 2.6-0.4 5.1-0.2 2.5-0.6 5-0.4 2.5-0.9 4.9-0.4 2.5-1.1 4.9-0.6 2.5-1.3 4.9-0.7 2.4-1.6 4.8-0.8 2.4-1.8 4.7-1 2.3-2 4.6-1.1 2.3-2.3 4.5-1.2 2.2-2.5 4.4-1.3 2.1-2.7 4.2-1.4 2.1-2.9 4.2-1.5 2-3.1 3.9-1.6 2-3.3 3.8-1.7 1.9-3.4 3.7-1.8 1.8-3.7 3.5-1.9 1.6-3.8 3.2-2 1.6-4 3.1-2 1.5-4.1 2.9-2.1 1.4-4.3 2.7-2.1 1.3-4.3 2.5-2.3 1.2-4.5 2.3-2.3 1.1-4.6 2-2.4 1-4.7 1.8-2.4 0.9-4.8 1.6-2.4 0.8-4.9 1.4-2.4 0.6-4.9 1.1-2.5 0.5-5 0.8-2.5 0.4-5 0.7-2.5 0.2-5 0.3-2.5 0.1-5 0.1-2.5 0-5.1-0.1-2.5-0.1-5-0.3-2.5-0.3-5-0.7-2.5-0.3-4.9-0.8-2.5-0.5-5-1.1-2.4-0.6-4.8-1.4-2.4-0.7-4.8-1.6-2.4-0.8-4.7-1.8-2.3-0.9-4.6-2-2.3-1.1-4.5-2.3-2.2-1.2-4.4-2.5-2.1-1.3-4.2-2.7-2.1-1.4-4.2-2.9-2-1.5-3.9-3.1-2-1.6-3.8-3.2-1.9-1.7-3.7-3.5-1.8-1.8-3.5-3.7-1.7-1.8-3.3-3.8-1.6-1.9-3.1-3.9-1.5-2.1-2.9-4.2-1.4-2.1-2.7-4.2-1.2-2.2-2.4-4.4-1.2-2.2-2.3-4.5-1.1-2.3-2-4.6-1-2.3-1.9-4.7-0.8-2.4-1.5-4.8-0.8-2.4-1.4-4.9-0.6-2.4-1.1-4.9-0.5-2.4-0.8-4.9-0.4-2.5-0.7-5-0.2-2.5-0.3-5.1-0.2-2.5-0.2-5 0-2.5 0.2-5 0.1-2.5 0.3-5 0.3-2.6 0.7-5 0.3-2.5 0.8-5 0.5-2.5 1.1-4.9 0.6-2.5 1.4-4.9 0.7-2.4 1.5-4.8 0.9-2.3 1.9-4.7 0.9-2.3 2-4.6 1.1-2.2 2.3-4.5 1.2-2.2 2.4-4.4 1.3-2.1 2.7-4.2 1.4-2.1 2.9-4.1 1.5-2.1 3.1-4 1.6-1.9 3.3-3.8 1.7-1.9 3.5-3.7 1.8-1.7 3.7-3.4 1.8-1.7 3.8-3.3 1.9-1.6 3.9-3.1 2.1-1.5 4.2-2.9 2.1-1.4 4.2-2.7 2.2-1.3 4.4-2.5 2.2-1.2 4.5-2.3 2.3-1 4.6-2 2.3-1 4.7-1.8 2.4-0.9 4.8-1.6 2.4-0.7 4.8-1.3 2.5-0.7 5-1.2 2.4-0.4 4.9-0.8 2.5-0.4 5-0.6 2.5-0.3 5-0.4 2.6-0.1 5.1-0.1 2.5 0 5 0.1 2.5 0.1 5 0.4 2.5 0.2 5 0.6 2.5 0.4 5 0.8 2.5 0.5 4.9 1.2 2.5 0.6 4.9 1.3 2.4 0.7 4.8 1.6 2.3 0.8 4.7 1.8 2.3 1 4.6 2 2.2 1.1 4.5 2.3 2.2 1.2 4.3 2.5 2.2 1.3 4.3 2.7 2.1 1.4 4.1 2.9 2 1.5 4 3.1 1.9 1.6 3.8 3.3 1.9 1.7 3.7 3.4 1.7 1.8 3.4 3.7 1.7 1.9 3.3 3.8 1.6 1.9 3.1 4 1.5 2 2.9 4.1 1.4 2.1 2.7 4.2 1.3 2.2 2.5 4.4 1.2 2.3 2.3 4.5 1 2.3 2 4.6 1 2.4 1.8 4.7 0.9 2.4 1.6 4.8 0.7 2.4 1.3 4.9 0.7 2.4 1.1 4.9 0.5 2.5 0.9 5 0.4 2.4 0.6 5 0.3 2.5 0.4 5 0.1 2.5 0.1 5z"/>
	<path class="s6" d="m2459.3 2211.3q0 2.8-0.3 5.6-0.3 2.8-0.8 5.5-0.6 2.7-1.4 5.4-0.8 2.7-1.9 5.3-1 2.6-2.4 5-1.3 2.5-2.8 4.8-1.6 2.4-3.4 4.5-1.7 2.2-3.7 4.2-2 1.9-4.2 3.7-2.1 1.8-4.5 3.4-2.3 1.5-4.7 2.8-2.5 1.3-5.1 2.4-2.6 1.1-5.3 1.9-2.6 0.8-5.4 1.4-2.7 0.5-5.5 0.8-2.8 0.2-5.6 0.2-2.8 0-5.6-0.2-2.8-0.3-5.5-0.8-2.7-0.6-5.4-1.4-2.7-0.8-5.3-1.9-2.6-1.1-5-2.4-2.5-1.3-4.8-2.8-2.4-1.6-4.5-3.4-2.2-1.8-4.2-3.7-1.9-2-3.7-4.2-1.8-2.1-3.4-4.5-1.5-2.3-2.8-4.8-1.3-2.4-2.4-5-1.1-2.6-1.9-5.3-0.8-2.7-1.4-5.4-0.5-2.7-0.8-5.5-0.2-2.8-0.3-5.6 0.1-2.8 0.3-5.6 0.3-2.8 0.8-5.5 0.6-2.8 1.4-5.4 0.8-2.7 1.9-5.3 1.1-2.6 2.4-5.1 1.3-2.4 2.8-4.7 1.6-2.4 3.4-4.5 1.8-2.2 3.7-4.2 2-2 4.2-3.7 2.1-1.8 4.5-3.4 2.3-1.5 4.8-2.8 2.4-1.4 5-2.4 2.6-1.1 5.3-1.9 2.7-0.8 5.4-1.4 2.7-0.5 5.5-0.8 2.8-0.3 5.6-0.3 2.8 0 5.6 0.3 2.8 0.3 5.5 0.8 2.8 0.6 5.4 1.4 2.7 0.8 5.3 1.9 2.6 1 5.1 2.4 2.4 1.3 4.7 2.8 2.4 1.6 4.5 3.4 2.2 1.7 4.2 3.7 2 2 3.7 4.2 1.8 2.1 3.4 4.5 1.5 2.3 2.8 4.7 1.4 2.5 2.4 5.1 1.1 2.6 1.9 5.3 0.8 2.6 1.4 5.4 0.5 2.7 0.8 5.5 0.3 2.8 0.3 5.6z"/>
	<path class="s7" d="m2620.6 2568.8c0 0 91.7-49.6 135.2-148 43.6-98.4-59.3-159.2-59.3-159.2 0 0-89.7-53.1-187.8 23.7-24.7 19.3-42.1 46.7-47.4 77.6-4 23.4-2 52.1 15.9 82.7 45 77.3 143.4 123.2 143.4 123.2z"/>
	<path class="s8" d="m2034.9 3263.8c14.4-24.6 25.4-51 32.7-78.6 49.4-188.2 62.8-482.5 62.8-482.5 15.6-199.4-244.7-320.7-320.9-351.9-13-5.3-26.8-8-40.8-8-37.1 527.5 113.7 722 113.7 722 0 0 33.5 102.2 152.5 199z"/>
	<g id="Clip-Path" clip-path="url(#cp7)">
		<g>
			<path class="s2" d="m2034.9 3263.8c14.4-24.6 25.4-51 32.7-78.6 49.4-188.2 62.8-482.5 62.8-482.5 15.6-199.4-244.6-320.7-320.9-351.9-13-5.3-26.8-8-40.8-8-37.1 527.5 113.7 722 113.7 722 0 0 33.5 102.2 152.5 199z"/>
		</g>
	</g>
	<path class="s8" d="m3423.6 2342.8q0 0 0 0c-17.2 0-34.2 3.4-50 10-81.9 34.1-331.4 154.5-316.1 349.9 0 0 14.1 310.5 66.9 497.5 5.4 19.1 13.2 37.4 23.2 54.5 139.6-118.9 181-253.2 181-253.2 0 0 113.2-249.3 95-658.7z"/>
	<g id="Clip-Path" clip-path="url(#cp8)">
		<g>
			<path class="s2" d="m3423.6 2342.8q0 0 0 0c-17.2 0-34.2 3.4-50 10-81.9 34.1-331.4 154.5-316.1 349.9 0 0 14.1 310.5 66.9 497.5 5.4 19.1 13.2 37.4 23.2 54.5 139.6-118.9 181-253.2 181-253.2 0 0 113.2-249.3 95-658.7z"/>
		</g>
	</g>
</svg>