<svg width="29" height="30" viewBox="0 0 29 30" fill="none" xmlns="http://www.w3.org/2000/svg">
<path fill-rule="evenodd" clip-rule="evenodd" d="M15.99 0.0320344C19.3474 0.245597 22.495 1.9541 24.8032 4.30328C27.5311 7.29316 29 10.9237 29 15.195C29 18.612 27.741 21.8154 25.6426 24.5917C23.5442 27.1545 20.6065 29.0765 17.249 29.7172C13.8916 30.3579 10.5342 29.9308 7.59645 28.2223C4.65871 26.5138 2.35049 23.951 1.09145 20.7476C-0.167579 17.5442 -0.377418 13.9136 0.671776 10.7102C1.72097 7.29316 3.60952 4.51685 6.54726 2.59478C9.27516 0.672722 12.6326 -0.181528 15.99 0.0320344ZM17.0392 27.5816C19.7671 26.9409 22.2852 25.446 24.1737 23.0968C25.8524 20.7476 26.9016 17.9713 26.6918 14.9814C26.6918 11.5644 25.4327 8.14741 23.1245 5.79822C21.0261 3.6626 18.5081 2.38122 15.5703 2.16766C12.8424 1.9541 9.90468 2.59478 7.59645 4.30328C5.28823 6.01178 3.60952 8.36097 2.77016 11.3508C1.93081 14.1272 1.93081 17.117 3.18984 19.8933C4.44887 22.6697 6.33742 24.8053 8.85548 26.3002C11.3735 27.7951 14.3113 28.2223 17.0392 27.5816ZM14.5211 13.9136L19.5573 8.57453L21.0261 10.0695L15.99 15.4085L21.0261 20.7476L19.5573 22.2425L14.5211 16.9035L9.485 22.2425L8.01613 20.7476L13.0523 15.4085L8.01613 10.0695L9.485 8.57453L14.5211 13.9136Z" fill="#EF6F6C"/>
</svg>
