<svg width="20" height="22" viewBox="0 0 20 22" fill="none" xmlns="http://www.w3.org/2000/svg">
<path d="M9.4 20.5998H3.39999C2.0745 20.5998 0.999991 19.5253 1 18.1998L1.00009 3.79989C1.0001 2.47441 2.07462 1.3999 3.40009 1.3999H14.2004C15.5258 1.3999 16.6004 2.47442 16.6004 3.7999V8.5999M17.8 18.7999L19 19.9999M5.20037 6.1999H12.4004M5.20037 9.7999H12.4004M5.20037 13.3999H8.80038M18.4 16.3999C18.4 18.0568 17.0569 19.3999 15.4 19.3999C13.7431 19.3999 12.4 18.0568 12.4 16.3999C12.4 14.743 13.7431 13.3999 15.4 13.3999C17.0569 13.3999 18.4 14.743 18.4 16.3999Z" stroke="black" stroke-width="2" stroke-linecap="round" stroke-linejoin="round"/>
</svg>
